<?xml version="1.0" encoding="UTF-8" standalone="no"?>
<!DOCTYPE svg PUBLIC "-//W3C//DTD SVG 1.1//EN" "http://www.w3.org/Graphics/SVG/1.1/DTD/svg11.dtd">
<svg version="1.1" xmlns="http://www.w3.org/2000/svg" xmlns:xlink="http://www.w3.org/1999/xlink" preserveAspectRatio="xMidYMid meet" viewBox="0 0 640 640" width="640" height="640"><defs><path d="M130.78 51.38L508.33 51.38L508.33 614.38L130.78 614.38L130.78 51.38Z" id="fFGSZAIke"></path><path d="M466.75 193.65L500.75 193.65L500.75 205.65L466.75 205.65L466.75 193.65Z" id="cUZFb57J"></path><path d="M120 0C112.63 0 106.67 5.96 106.67 13.33C106.67 74.67 106.67 565.33 106.67 626.67C106.67 634.04 112.63 640 120 640C160 640 480 640 520 640C527.37 640 533.33 634.04 533.33 626.67C533.33 565.33 533.33 74.67 533.33 13.33C533.33 5.96 527.37 0 520 0C440 0 160 0 120 0ZM426.67 66.67C426.67 74.03 420.7 80 413.33 80C405.97 80 400 74.03 400 66.67C400 59.3 405.97 53.33 413.33 53.33C420.7 53.33 426.67 59.3 426.67 66.67ZM373.33 66.67C373.33 74.03 367.36 80 360 80C352.64 80 346.67 74.03 346.67 66.67C346.67 59.3 352.64 53.33 360 53.33C367.36 53.33 373.33 59.3 373.33 66.67ZM320 66.67C320 74.03 314.03 80 306.67 80C299.3 80 293.33 74.03 293.33 66.67C293.33 59.3 299.3 53.33 306.67 53.33C314.03 53.33 320 59.3 320 66.67ZM266.67 106.67C266.67 136.07 242.75 160 213.33 160C183.92 160 160 136.07 160 106.67C160 77.27 183.92 53.33 213.33 53.33C242.75 53.33 266.67 77.27 266.67 106.67ZM182.76 422.76C180.21 425.31 176.8 426.67 173.33 426.67C171.62 426.67 169.88 426.33 168.23 425.65C163.24 423.59 160 418.72 160 413.33C160 408 160 365.33 160 360C160 354.61 163.24 349.74 168.23 347.68C173.23 345.68 178.95 346.75 182.76 350.57C185.43 353.24 206.76 374.57 209.43 377.24C214.64 382.45 214.64 390.89 209.43 396.09C204.09 401.43 185.43 420.09 182.76 422.76ZM253.33 586.67C245.96 586.67 240 580.7 240 573.33C240 565.96 245.96 560 253.33 560C266.67 560 373.33 560 386.67 560C394.04 560 400 565.96 400 573.33C400 580.7 394.04 586.67 386.67 586.67C360 586.67 266.67 586.67 253.33 586.67ZM480 133.33L480 186.67L506.67 186.67L506.67 213.33L480 213.33L480 533.33L506.67 533.33L506.67 560L480 560L480 613.33L453.33 613.33L453.33 133.33C417.22 133.33 397.15 133.33 393.14 133.33C375.34 133.33 358.59 140.26 345.99 152.87C342.68 156.18 316.18 182.68 312.86 185.99C295.22 203.62 271.78 213.33 246.86 213.33C239.29 213.33 201.45 213.33 133.33 213.33L133.33 186.67C201.45 186.67 239.29 186.67 246.86 186.67C264.66 186.67 281.4 179.74 294.01 167.14C297.32 163.82 323.82 137.32 327.14 134.01C344.78 116.38 368.22 106.67 393.14 106.67C400.71 106.67 438.55 106.67 506.67 106.67L506.67 133.33L480 133.33Z" id="b2eB3w1EcY"></path><path d="M257 106.75C257 130.76 237.51 150.25 213.5 150.25C189.49 150.25 170 130.76 170 106.75C170 82.74 189.49 63.25 213.5 63.25C237.51 63.25 257 82.74 257 106.75Z" id="ahAzh37yo"></path><path d="" id="a1GgsOAYmR"></path><path d="M500.06 120.1C450.06 119.99 418.81 119.93 406.31 119.9C406.31 119.9 387.65 120.31 387.65 120.31C381.84 120.58 388.98 120.25 386.98 120.34C368.69 121.19 351.34 128.68 338.2 141.42C334.26 145.23 330.25 149.11 323.16 155.97C323.16 155.97 314.04 165.2 314.04 165.2C308.49 171.06 307.65 171.95 304.94 174.82C292.86 187.58 276.9 195.98 259.54 198.71C257.79 198.98 264.6 197.91 259.17 198.77C253.58 199.64 247.93 200.08 242.27 200.08C228.63 200.07 194.52 200.06 139.94 200.03" id="a17wIGQg3U"></path><path d="M460 119.9L472 119.9L472 606.88L460 606.88L460 119.9Z" id="a4g8A3Iqn6"></path><path d="M466.75 540.5L500.75 540.5L500.75 552.5L466.75 552.5L466.75 540.5Z" id="a2tdBhsbjW"></path><path d="M384.73 568.25C387.36 568.25 389.5 570.39 389.5 573.02C389.5 574.07 389.5 572.07 389.5 573.02C389.5 575.91 387.16 578.25 384.27 578.25C357.72 578.25 283.05 578.25 256.44 578.25C253.71 578.25 251.5 576.04 251.5 573.31C251.5 572.3 251.5 574.3 251.5 573.31C251.5 570.52 253.77 568.25 256.56 568.25C283.15 568.25 358.08 568.25 384.73 568.25Z" id="a84J89bYgM"></path><path d="M167.18 365.76C167.18 358.58 175.91 355.04 180.91 360.19C186.14 365.58 193.13 372.78 199.62 379.46C203.76 383.72 203.74 390.52 199.56 394.75C193.08 401.31 185.66 408.83 180.3 414.26C175.49 419.13 167.18 415.72 167.18 408.87C167.18 396.31 167.18 378.11 167.18 365.76Z" id="cL3jHq4iQ"></path><path d="M312.8 66.6C312.8 69.91 310.11 72.6 306.8 72.6C303.48 72.6 300.8 69.91 300.8 66.6C300.8 63.29 303.48 60.6 306.8 60.6C310.11 60.6 312.8 63.29 312.8 66.6Z" id="e2gNWz2mma"></path><path d="M365.96 66.6C365.96 69.91 363.27 72.6 359.96 72.6C356.65 72.6 353.96 69.91 353.96 66.6C353.96 63.29 356.65 60.6 359.96 60.6C363.27 60.6 365.96 63.29 365.96 66.6Z" id="c1wOkImUm6"></path><path d="M419.46 66.6C419.46 69.91 416.77 72.6 413.46 72.6C410.15 72.6 407.46 69.91 407.46 66.6C407.46 63.29 410.15 60.6 413.46 60.6C416.77 60.6 419.46 63.29 419.46 66.6Z" id="a2grZx7Lqa"></path></defs><g><g><g><use xlink:href="#fFGSZAIke" opacity="1" fill="#7d7d7d" fill-opacity="1"></use></g><g><use xlink:href="#cUZFb57J" opacity="1" fill="#5528a1" fill-opacity="1"></use></g><g><use xlink:href="#b2eB3w1EcY" opacity="1" fill="#000000" fill-opacity="1"></use><g><use xlink:href="#b2eB3w1EcY" opacity="1" fill-opacity="0" stroke="#000000" stroke-width="1" stroke-opacity="0"></use></g></g><g><use xlink:href="#ahAzh37yo" opacity="1" fill="#5528a1" fill-opacity="1"></use></g><g><g><use xlink:href="#a1GgsOAYmR" opacity="1" fill-opacity="0" stroke="#000000" stroke-width="1" stroke-opacity="1"></use></g></g><g><g><use xlink:href="#a17wIGQg3U" opacity="1" fill-opacity="0" stroke="#5528a1" stroke-width="12" stroke-opacity="1"></use></g></g><g><use xlink:href="#a4g8A3Iqn6" opacity="1" fill="#5528a1" fill-opacity="1"></use></g><g><use xlink:href="#a2tdBhsbjW" opacity="1" fill="#5528a1" fill-opacity="1"></use></g><g><use xlink:href="#a84J89bYgM" opacity="1" fill="#5528a1" fill-opacity="1"></use></g><g><use xlink:href="#cL3jHq4iQ" opacity="1" fill="#5528a1" fill-opacity="1"></use></g><g><use xlink:href="#e2gNWz2mma" opacity="1" fill="#5528a1" fill-opacity="1"></use></g><g><use xlink:href="#c1wOkImUm6" opacity="1" fill="#5528a1" fill-opacity="1"></use></g><g><use xlink:href="#a2grZx7Lqa" opacity="1" fill="#5528a1" fill-opacity="1"></use></g></g></g></svg>