<?xml version="1.0" standalone="no"?>
<!DOCTYPE svg PUBLIC "-//W3C//DTD SVG 20010904//EN"
 "http://www.w3.org/TR/2001/REC-SVG-20010904/DTD/svg10.dtd">
<svg version="1.0" xmlns="http://www.w3.org/2000/svg"
 width="700.000000pt" height="700.000000pt" viewBox="0 0 700.000000 700.000000"
 preserveAspectRatio="xMidYMid meet">
<metadata>
Created by potrace 1.11, written by Peter Selinger 2001-2013
</metadata>
<g transform="translate(0.000000,700.000000) scale(0.100000,-0.100000)"
fill="#000000" stroke="none">
<path d="M3299 6716 c-2 -2 -43 -7 -90 -10 -47 -4 -94 -8 -105 -10 -10 -2 -44
-7 -74 -10 -200 -25 -561 -122 -715 -191 -16 -8 -53 -23 -82 -34 -28 -11 -102
-45 -163 -76 -623 -312 -1121 -808 -1438 -1431 -143 -283 -245 -584 -297 -884
-24 -140 -30 -186 -42 -320 -13 -154 -7 -527 11 -630 3 -14 7 -47 11 -75 5
-43 25 -162 39 -230 24 -116 115 -417 151 -500 8 -16 30 -68 50 -115 100 -234
293 -548 448 -730 264 -310 539 -548 847 -729 58 -34 112 -66 120 -71 34 -20
172 -85 275 -130 307 -132 676 -223 1010 -247 168 -13 516 -7 625 11 22 4 56
9 150 21 22 4 136 26 197 39 96 21 297 82 403 122 148 57 202 81 338 151 225
115 395 228 587 389 386 324 678 710 881 1165 73 162 173 461 198 589 5 24 21
104 30 146 7 33 14 83 22 149 3 33 8 69 10 80 22 118 22 547 -1 700 -2 17 -6
48 -9 70 -2 22 -12 83 -21 135 -87 496 -287 958 -591 1367 -48 65 -92 123 -98
129 -6 7 -36 40 -68 75 -443 499 -996 835 -1638 994 -154 38 -240 54 -385 70
-33 3 -71 9 -85 12 -28 5 -496 14 -501 9z m2182 -1333 c24 -27 69 -77 99 -113
30 -36 57 -67 60 -70 18 -16 145 -199 194 -278 187 -305 335 -714 372 -1032 3
-30 8 -58 10 -61 6 -10 17 -230 18 -339 0 -108 -11 -299 -19 -322 -2 -7 -6
-37 -9 -66 -10 -85 -54 -283 -91 -404 -235 -776 -813 -1413 -1570 -1730 -91
-38 -228 -86 -295 -104 -8 -2 -47 -12 -86 -23 -40 -11 -85 -22 -100 -24 -16
-3 -51 -10 -79 -15 -27 -6 -75 -13 -105 -17 -30 -4 -66 -9 -80 -10 -232 -30
-565 -18 -805 30 -38 8 -81 16 -95 19 -83 15 -343 95 -427 132 -18 8 -50 21
-70 30 -33 14 -125 60 -228 113 -57 29 -215 130 -293 187 -105 78 -168 131
-265 222 l-56 53 479 479 c264 264 482 480 485 480 3 0 38 -27 78 -61 204
-172 407 -266 675 -313 78 -14 366 -16 427 -2 17 3 53 11 80 16 145 30 342
113 470 200 269 182 465 454 550 760 35 129 48 223 49 360 1 155 -6 218 -38
345 -42 161 -99 291 -191 430 -53 79 -66 96 -133 166 l-34 37 484 485 c265
267 486 486 489 486 3 1 26 -20 50 -46z m-1749 -982 c258 -67 481 -248 602
-488 153 -303 117 -699 -87 -973 -243 -326 -678 -460 -1059 -325 -307 109
-530 359 -603 677 -19 84 -27 265 -14 335 5 27 11 58 14 71 10 57 39 142 70
204 135 273 372 454 670 513 98 20 306 12 407 -14z"/>
</g>
</svg>
